<?xml version="1.0" standalone="no"?><!DOCTYPE svg PUBLIC "-//W3C//DTD SVG 1.1//EN" "http://www.w3.org/Graphics/SVG/1.1/DTD/svg11.dtd"><svg class="icon" width="200px" height="200.00px" viewBox="0 0 1024 1024" version="1.1" xmlns="http://www.w3.org/2000/svg"><path d="M520.739883 505.296638m-476.889197 0a476.889197 476.889197 0 1 0 953.778394 0 476.889197 476.889197 0 1 0-953.778394 0Z" fill="#FFCC00" /><path d="M707.061273 387.575766c-37.36633-26.158689-94.42957-26.659917-165.134342-1.571418-70.68671-25.120108-127.74995-24.587271-165.116281 1.571418-30.629102 21.417342-46.82193 59.718394-46.82193 110.744319 0 113.68847 106.955757 229.530866 211.942726 229.530866 105.005032 0 211.956273-115.842396 211.956273-229.530866 0-51.025925-16.192829-89.326977-46.826446-110.744319M526.045676 356.937633h21.168985l5.31934-0.027093v-31.771541c0-58.426942-47.544421-105.971363-105.966847-105.971363l-31.812181 0.022578v31.767025c-0.004516 58.435973 52.850215 105.980394 111.290703 105.980394" fill="#76D03B" /></svg>